<?xml version="1.0" encoding="utf-8"?>
<!-- Generator: Adobe Illustrator 24.0.1, SVG Export Plug-In . SVG Version: 6.00 Build 0)  -->
<svg version="1.1" id="Layer_1" xmlns="http://www.w3.org/2000/svg" xmlns:xlink="http://www.w3.org/1999/xlink" x="0px" y="0px"
	 viewBox="0 0 90 23" style="enable-background:new 0 0 90 23;" xml:space="preserve">
<style type="text/css">
	.st0{fill:none;stroke:#FF4D00;stroke-width:0.6;stroke-miterlimit:10;}
	.st1{fill:#FF4D00;}
	.st2{font-family:'Signa-BlackItalic';}
	.st3{font-size:9.0739px;}
	.st4{fill:#00326C;}
</style>
<g>
	<rect x="0.7" y="6.7" class="st0" width="34" height="9.6"/>
	<text transform="matrix(1 0 0 1 12.055 14.6034)"><tspan x="0" y="0" class="st1 st2 st3">UCH</tspan><tspan x="21.3" y="0" class="st4 st2 st3"> AIRCARGO</tspan></text>
	<g id="Q4Q18u_1_">
		<g>
			<g>
				<path class="st1" d="M5,10.5c0.1,0,0.2-0.1,0.3-0.1c0,0,0.1-0.1,0.1,0.1c0,0.1,0.1,0.1,0.1,0.1c0.3,0.1,0.6,0.2,1,0
					c0.1,0,0.1-0.1,0.2-0.1c0,0.1-0.2,0.1-0.2,0.2c0.2,0,0.5,0.1,0.7,0.1c0,0,0.1,0,0.1,0.1c0,0,0,0.1-0.1,0.1
					c-0.6,0.4-1.2,0.9-1.8,1.3c0,0,0,0-0.1,0c0.1-0.1,0.1-0.2,0.2-0.3c0,0,0,0,0,0c-0.4,0.1-0.8,0.3-1.2,0.4c0,0,0,0,0,0
					c0.2,0.1,0.5,0.2,0.7,0.3c0.1,0,0.1,0,0.1,0.1c0,0.1-0.1,0.1-0.1,0.1c-0.3,0.2-0.6,0.3-0.9,0.5c-0.1,0.1-0.2,0-0.2-0.1
					c-0.1-0.2-0.2-0.3-0.3-0.5c0-0.1-0.1-0.1-0.2,0c-0.3,0.3-0.6,0.6-0.8,1c-0.1,0.1-0.2,0.2-0.4,0.3c0,0-0.1,0-0.1,0
					c0,0,0-0.1,0-0.1c0.1-0.2,0.2-0.4,0.4-0.6c0.2-0.2,0.3-0.4,0.2-0.7C2.1,10.8,3,8.7,4.8,7.9C6.2,7.3,7.9,7.6,9,8.5
					c0,0,0.1,0.1,0,0.2C8.9,8.7,8.8,8.9,8.7,8.8C8.4,8.5,8.1,8.3,7.8,8.2C6.4,7.7,5.1,7.9,4,8.9c-1,1-1.3,2.2-0.9,3.6
					c0,0.1,0,0.1,0.1,0.1c0.1,0,0.1-0.1,0.2-0.1c0.1-0.1,0.1-0.2,0.1-0.4c-0.3-1.2,0-2.2,0.9-3C5.5,8,7.4,8,8.6,9.2
					c0.1,0.1,0.2,0.1,0.3,0c0.4-0.3,0.9-0.5,1.4-0.7c0.2,0,0.4-0.1,0.6,0c0.3,0,0.4,0.2,0.3,0.5c-0.1,0.5-0.4,0.8-0.8,1.1
					c-0.1,0.1-0.2,0.2-0.1,0.4c0.5,2-0.7,4.1-2.6,4.6c-1.3,0.4-2.4,0.2-3.5-0.6c-0.1,0-0.2-0.1-0.1-0.2c0.1-0.1,0.3-0.2,0.4-0.1
					c0.4,0.3,0.9,0.5,1.4,0.6c1.7,0.4,3.5-0.6,4.1-2.3c0.2-0.7,0.2-1.3,0.1-2c0-0.2,0-0.2,0.1-0.4c0.3-0.2,0.6-0.5,0.8-0.9
					c0.1-0.1,0.1-0.2,0.1-0.3c0.1-0.2,0-0.3-0.2-0.2c-0.3,0-0.6,0.2-0.9,0.3C9.5,9.3,9.1,9.6,8.8,9.8C8.6,9.9,8.5,10,8.3,10
					c-0.8,0-1.6,0.1-2.3,0.1C5.6,10.1,5.3,10.2,5,10.5z"/>
				<path class="st1" d="M8.6,11c-0.1,0.2-0.3,0.3-0.5,0.5c0,0.1-0.1,0.1-0.2,0.2c-0.1,0.1-0.2,0.3-0.1,0.4c0.1,0.1,0.2-0.1,0.3-0.1
					C8,12,8,12.1,7.9,12.2c-0.2,0.1-0.2,0.3-0.2,0.5c0,0,0,0,0,0.1c0.1,0.1,0.1,0.1,0,0.2c0,0,0,0,0,0.1c0.2-0.1,0.4-0.2,0.5-0.5
					c0.2-0.4,0.4-0.9,0.7-1.3c0.1-0.1,0.2-0.3,0.3-0.4c0.1-0.1,0.2-0.1,0.3-0.1c0.1,0,0.1,0.1,0.2,0.2c0.2,1.4-0.4,2.8-2,3.4
					c-1,0.4-2,0.3-2.9-0.4c-0.2-0.1-0.3-0.1-0.5,0c-0.4,0.3-0.9,0.5-1.4,0.6c-0.2,0-0.3,0-0.4-0.1c0,0,0,0-0.1-0.1
					c0,0,0-0.1,0.1-0.1c0.9-0.1,1.6-0.6,2.4-1.1c1.2-0.7,2.5-1.5,3.7-2.2C8.4,11.1,8.5,11,8.6,11z"/>
			</g>
		</g>
	</g>
</g>
</svg>
